<svg xmlns="http://www.w3.org/2000/svg" viewBox="0 0 193.746 198.814">
    <path fill="#F2B668" d="M0 88.274l96.977 55.986.43-32.294L.446 55.982zm96.34-55.987l96.964 55.987.442-32.292L96.782 0zm0 54.561l96.964 55.984.442-32.292-96.964-55.984zM0 142.832l96.977 55.982.43-32.286L.446 110.54z"/>
    <path fill="#ed9728" d="M.446 55.982L0 88.274l96.34-55.987L96.782 0zm0 54.558L0 142.832l96.34-55.984.442-32.292zm96.962 55.988l-.431 32.286 96.327-55.982.442-32.292zm0-54.562l-.431 32.294 96.327-55.986.442-32.292z"/>
</svg>